<mxfile host="app.diagrams.net" modified="2023-06-28T15:32:41.674Z" agent="Mozilla/5.0 (Windows NT 10.0; Win64; x64) AppleWebKit/537.36 (KHTML, like Gecko) Chrome/114.0.0.0 Safari/537.36 Edg/114.0.1823.58" etag="f1Bf1ZZV35E_tTzqdkas" version="21.5.0" type="device">
  <diagram name="Page-1" id="_FFotFV9pngyrHU4QYEZ">
    <mxGraphModel dx="1686" dy="550" grid="1" gridSize="10" guides="1" tooltips="1" connect="1" arrows="1" fold="1" page="1" pageScale="1" pageWidth="850" pageHeight="1100" math="0" shadow="0">
      <root>
        <mxCell id="0" />
        <mxCell id="1" parent="0" />
        <mxCell id="9xQEHc9tJy_SXQ6Zdmgq-38" value="" style="rounded=1;whiteSpace=wrap;html=1;" vertex="1" parent="1">
          <mxGeometry x="70.5" y="550" width="60.5" height="10" as="geometry" />
        </mxCell>
        <mxCell id="9xQEHc9tJy_SXQ6Zdmgq-2" value="" style="rounded=1;whiteSpace=wrap;html=1;" vertex="1" parent="1">
          <mxGeometry x="80" y="280" width="50" height="10" as="geometry" />
        </mxCell>
        <mxCell id="9xQEHc9tJy_SXQ6Zdmgq-4" value="" style="rounded=1;whiteSpace=wrap;html=1;" vertex="1" parent="1">
          <mxGeometry x="80" y="303" width="50" height="10" as="geometry" />
        </mxCell>
        <mxCell id="9xQEHc9tJy_SXQ6Zdmgq-5" value="" style="rounded=1;whiteSpace=wrap;html=1;" vertex="1" parent="1">
          <mxGeometry x="80" y="326" width="50" height="10" as="geometry" />
        </mxCell>
        <mxCell id="9xQEHc9tJy_SXQ6Zdmgq-6" value="" style="rounded=1;whiteSpace=wrap;html=1;" vertex="1" parent="1">
          <mxGeometry x="81" y="349" width="50" height="10" as="geometry" />
        </mxCell>
        <mxCell id="9xQEHc9tJy_SXQ6Zdmgq-7" value="" style="rounded=1;whiteSpace=wrap;html=1;" vertex="1" parent="1">
          <mxGeometry x="81" y="372" width="50" height="10" as="geometry" />
        </mxCell>
        <mxCell id="9xQEHc9tJy_SXQ6Zdmgq-8" value="" style="rounded=1;whiteSpace=wrap;html=1;" vertex="1" parent="1">
          <mxGeometry x="80" y="397" width="50" height="10" as="geometry" />
        </mxCell>
        <mxCell id="9xQEHc9tJy_SXQ6Zdmgq-9" value="" style="rounded=1;whiteSpace=wrap;html=1;" vertex="1" parent="1">
          <mxGeometry x="80" y="420" width="50" height="10" as="geometry" />
        </mxCell>
        <mxCell id="9xQEHc9tJy_SXQ6Zdmgq-10" value="" style="rounded=1;whiteSpace=wrap;html=1;" vertex="1" parent="1">
          <mxGeometry x="80" y="443" width="50" height="10" as="geometry" />
        </mxCell>
        <mxCell id="9xQEHc9tJy_SXQ6Zdmgq-11" value="" style="rounded=1;whiteSpace=wrap;html=1;" vertex="1" parent="1">
          <mxGeometry x="81" y="466" width="50" height="10" as="geometry" />
        </mxCell>
        <mxCell id="9xQEHc9tJy_SXQ6Zdmgq-13" value="" style="rounded=1;whiteSpace=wrap;html=1;" vertex="1" parent="1">
          <mxGeometry x="81" y="487" width="50" height="10" as="geometry" />
        </mxCell>
        <mxCell id="9xQEHc9tJy_SXQ6Zdmgq-14" value="" style="rounded=1;whiteSpace=wrap;html=1;" vertex="1" parent="1">
          <mxGeometry x="81" y="510" width="50" height="10" as="geometry" />
        </mxCell>
        <mxCell id="9xQEHc9tJy_SXQ6Zdmgq-15" value="" style="rounded=1;whiteSpace=wrap;html=1;" vertex="1" parent="1">
          <mxGeometry x="81" y="236" width="50" height="10" as="geometry" />
        </mxCell>
        <mxCell id="9xQEHc9tJy_SXQ6Zdmgq-16" value="" style="rounded=1;whiteSpace=wrap;html=1;" vertex="1" parent="1">
          <mxGeometry x="81" y="259" width="50" height="10" as="geometry" />
        </mxCell>
        <mxCell id="9xQEHc9tJy_SXQ6Zdmgq-17" value="" style="rounded=1;whiteSpace=wrap;html=1;" vertex="1" parent="1">
          <mxGeometry x="70" y="530" width="60.5" height="10" as="geometry" />
        </mxCell>
        <mxCell id="9xQEHc9tJy_SXQ6Zdmgq-18" value="" style="rounded=1;whiteSpace=wrap;html=1;" vertex="1" parent="1">
          <mxGeometry x="70" y="214" width="60.5" height="10" as="geometry" />
        </mxCell>
        <mxCell id="9xQEHc9tJy_SXQ6Zdmgq-21" value="CHIP" style="rounded=0;whiteSpace=wrap;html=1;glass=0;shadow=1;" vertex="1" parent="1">
          <mxGeometry x="-110" y="205" width="191" height="365" as="geometry" />
        </mxCell>
        <mxCell id="9xQEHc9tJy_SXQ6Zdmgq-23" value="0" style="text;html=1;strokeColor=none;fillColor=none;align=center;verticalAlign=middle;whiteSpace=wrap;rounded=0;" vertex="1" parent="1">
          <mxGeometry x="60" y="211" width="20" height="16" as="geometry" />
        </mxCell>
        <mxCell id="9xQEHc9tJy_SXQ6Zdmgq-24" value="1" style="text;html=1;strokeColor=none;fillColor=none;align=center;verticalAlign=middle;whiteSpace=wrap;rounded=0;" vertex="1" parent="1">
          <mxGeometry x="61" y="233" width="20" height="16" as="geometry" />
        </mxCell>
        <mxCell id="9xQEHc9tJy_SXQ6Zdmgq-25" value="2" style="text;html=1;strokeColor=none;fillColor=none;align=center;verticalAlign=middle;whiteSpace=wrap;rounded=0;" vertex="1" parent="1">
          <mxGeometry x="61" y="254" width="20" height="20" as="geometry" />
        </mxCell>
        <mxCell id="9xQEHc9tJy_SXQ6Zdmgq-26" value="3" style="text;html=1;strokeColor=none;fillColor=none;align=center;verticalAlign=middle;whiteSpace=wrap;rounded=0;" vertex="1" parent="1">
          <mxGeometry x="61" y="275" width="20" height="20" as="geometry" />
        </mxCell>
        <mxCell id="9xQEHc9tJy_SXQ6Zdmgq-27" value="4" style="text;html=1;strokeColor=none;fillColor=none;align=center;verticalAlign=middle;whiteSpace=wrap;rounded=0;" vertex="1" parent="1">
          <mxGeometry x="60.5" y="298" width="20" height="20" as="geometry" />
        </mxCell>
        <mxCell id="9xQEHc9tJy_SXQ6Zdmgq-28" value="5" style="text;html=1;strokeColor=none;fillColor=none;align=center;verticalAlign=middle;whiteSpace=wrap;rounded=0;" vertex="1" parent="1">
          <mxGeometry x="61" y="321" width="20" height="20" as="geometry" />
        </mxCell>
        <mxCell id="9xQEHc9tJy_SXQ6Zdmgq-29" value="6" style="text;html=1;strokeColor=none;fillColor=none;align=center;verticalAlign=middle;whiteSpace=wrap;rounded=0;" vertex="1" parent="1">
          <mxGeometry x="61" y="344" width="20" height="20" as="geometry" />
        </mxCell>
        <mxCell id="9xQEHc9tJy_SXQ6Zdmgq-30" value="7" style="text;html=1;strokeColor=none;fillColor=none;align=center;verticalAlign=middle;whiteSpace=wrap;rounded=0;" vertex="1" parent="1">
          <mxGeometry x="61" y="367" width="20" height="20" as="geometry" />
        </mxCell>
        <mxCell id="9xQEHc9tJy_SXQ6Zdmgq-31" value="8" style="text;html=1;strokeColor=none;fillColor=none;align=center;verticalAlign=middle;whiteSpace=wrap;rounded=0;" vertex="1" parent="1">
          <mxGeometry x="61" y="392" width="20" height="20" as="geometry" />
        </mxCell>
        <mxCell id="9xQEHc9tJy_SXQ6Zdmgq-32" value="9" style="text;html=1;strokeColor=none;fillColor=none;align=center;verticalAlign=middle;whiteSpace=wrap;rounded=0;" vertex="1" parent="1">
          <mxGeometry x="59.5" y="415" width="20" height="20" as="geometry" />
        </mxCell>
        <mxCell id="9xQEHc9tJy_SXQ6Zdmgq-33" value="10" style="text;html=1;strokeColor=none;fillColor=none;align=center;verticalAlign=middle;whiteSpace=wrap;rounded=0;" vertex="1" parent="1">
          <mxGeometry x="59.5" y="438" width="20" height="20" as="geometry" />
        </mxCell>
        <mxCell id="9xQEHc9tJy_SXQ6Zdmgq-34" value="11" style="text;html=1;strokeColor=none;fillColor=none;align=center;verticalAlign=middle;whiteSpace=wrap;rounded=0;" vertex="1" parent="1">
          <mxGeometry x="61" y="461" width="20" height="20" as="geometry" />
        </mxCell>
        <mxCell id="9xQEHc9tJy_SXQ6Zdmgq-35" value="12" style="text;html=1;strokeColor=none;fillColor=none;align=center;verticalAlign=middle;whiteSpace=wrap;rounded=0;" vertex="1" parent="1">
          <mxGeometry x="61" y="482" width="20" height="20" as="geometry" />
        </mxCell>
        <mxCell id="9xQEHc9tJy_SXQ6Zdmgq-36" value="13" style="text;html=1;strokeColor=none;fillColor=none;align=center;verticalAlign=middle;whiteSpace=wrap;rounded=0;" vertex="1" parent="1">
          <mxGeometry x="61" y="505" width="20" height="20" as="geometry" />
        </mxCell>
        <mxCell id="9xQEHc9tJy_SXQ6Zdmgq-37" value="14" style="text;html=1;strokeColor=none;fillColor=none;align=center;verticalAlign=middle;whiteSpace=wrap;rounded=0;" vertex="1" parent="1">
          <mxGeometry x="59.5" y="525" width="20" height="20" as="geometry" />
        </mxCell>
        <mxCell id="9xQEHc9tJy_SXQ6Zdmgq-39" value="15" style="text;html=1;strokeColor=none;fillColor=none;align=center;verticalAlign=middle;whiteSpace=wrap;rounded=0;" vertex="1" parent="1">
          <mxGeometry x="60" y="545" width="20" height="20" as="geometry" />
        </mxCell>
        <mxCell id="9xQEHc9tJy_SXQ6Zdmgq-40" value="reset" style="text;html=1;strokeColor=none;fillColor=none;align=center;verticalAlign=middle;whiteSpace=wrap;rounded=0;" vertex="1" parent="1">
          <mxGeometry x="129.5" y="208.5" width="30.5" height="21" as="geometry" />
        </mxCell>
        <mxCell id="9xQEHc9tJy_SXQ6Zdmgq-41" value="C" style="text;html=1;strokeColor=none;fillColor=none;align=left;verticalAlign=middle;whiteSpace=wrap;rounded=0;" vertex="1" parent="1">
          <mxGeometry x="130.5" y="229.5" width="29.5" height="21" as="geometry" />
        </mxCell>
        <mxCell id="9xQEHc9tJy_SXQ6Zdmgq-42" value="C#" style="text;html=1;strokeColor=none;fillColor=none;align=left;verticalAlign=middle;whiteSpace=wrap;rounded=0;" vertex="1" parent="1">
          <mxGeometry x="131" y="253" width="29.5" height="21" as="geometry" />
        </mxCell>
        <mxCell id="9xQEHc9tJy_SXQ6Zdmgq-43" value="D" style="text;html=1;strokeColor=none;fillColor=none;align=left;verticalAlign=middle;whiteSpace=wrap;rounded=0;" vertex="1" parent="1">
          <mxGeometry x="129.5" y="274.5" width="29.5" height="21" as="geometry" />
        </mxCell>
        <mxCell id="9xQEHc9tJy_SXQ6Zdmgq-44" value="D#" style="text;html=1;strokeColor=none;fillColor=none;align=left;verticalAlign=middle;whiteSpace=wrap;rounded=0;" vertex="1" parent="1">
          <mxGeometry x="129.5" y="297.5" width="29.5" height="21" as="geometry" />
        </mxCell>
        <mxCell id="9xQEHc9tJy_SXQ6Zdmgq-45" value="E" style="text;html=1;strokeColor=none;fillColor=none;align=left;verticalAlign=middle;whiteSpace=wrap;rounded=0;" vertex="1" parent="1">
          <mxGeometry x="131" y="320.5" width="29.5" height="21" as="geometry" />
        </mxCell>
        <mxCell id="9xQEHc9tJy_SXQ6Zdmgq-46" value="F" style="text;html=1;strokeColor=none;fillColor=none;align=left;verticalAlign=middle;whiteSpace=wrap;rounded=0;" vertex="1" parent="1">
          <mxGeometry x="131" y="343.5" width="29.5" height="21" as="geometry" />
        </mxCell>
        <mxCell id="9xQEHc9tJy_SXQ6Zdmgq-47" value="F#" style="text;html=1;strokeColor=none;fillColor=none;align=left;verticalAlign=middle;whiteSpace=wrap;rounded=0;" vertex="1" parent="1">
          <mxGeometry x="131" y="366.5" width="29.5" height="21" as="geometry" />
        </mxCell>
        <mxCell id="9xQEHc9tJy_SXQ6Zdmgq-48" value="G" style="text;html=1;strokeColor=none;fillColor=none;align=left;verticalAlign=middle;whiteSpace=wrap;rounded=0;" vertex="1" parent="1">
          <mxGeometry x="131" y="391.5" width="29.5" height="21" as="geometry" />
        </mxCell>
        <mxCell id="9xQEHc9tJy_SXQ6Zdmgq-49" value="G#" style="text;html=1;strokeColor=none;fillColor=none;align=left;verticalAlign=middle;whiteSpace=wrap;rounded=0;" vertex="1" parent="1">
          <mxGeometry x="131" y="414.5" width="29.5" height="21" as="geometry" />
        </mxCell>
        <mxCell id="9xQEHc9tJy_SXQ6Zdmgq-50" value="A" style="text;html=1;strokeColor=none;fillColor=none;align=left;verticalAlign=middle;whiteSpace=wrap;rounded=0;" vertex="1" parent="1">
          <mxGeometry x="131" y="437.5" width="29.5" height="21" as="geometry" />
        </mxCell>
        <mxCell id="9xQEHc9tJy_SXQ6Zdmgq-51" value="A#" style="text;html=1;strokeColor=none;fillColor=none;align=left;verticalAlign=middle;whiteSpace=wrap;rounded=0;" vertex="1" parent="1">
          <mxGeometry x="130.5" y="460.5" width="29.5" height="21" as="geometry" />
        </mxCell>
        <mxCell id="9xQEHc9tJy_SXQ6Zdmgq-52" value="B" style="text;html=1;strokeColor=none;fillColor=none;align=left;verticalAlign=middle;whiteSpace=wrap;rounded=0;" vertex="1" parent="1">
          <mxGeometry x="131" y="481.5" width="29.5" height="21" as="geometry" />
        </mxCell>
        <mxCell id="9xQEHc9tJy_SXQ6Zdmgq-53" value="Oct_down" style="text;html=1;strokeColor=none;fillColor=none;align=left;verticalAlign=middle;whiteSpace=wrap;rounded=0;" vertex="1" parent="1">
          <mxGeometry x="131" y="504.5" width="59" height="21" as="geometry" />
        </mxCell>
        <mxCell id="9xQEHc9tJy_SXQ6Zdmgq-54" value="Oct_up" style="text;html=1;strokeColor=none;fillColor=none;align=left;verticalAlign=middle;whiteSpace=wrap;rounded=0;" vertex="1" parent="1">
          <mxGeometry x="131" y="524.5" width="59" height="21" as="geometry" />
        </mxCell>
        <mxCell id="9xQEHc9tJy_SXQ6Zdmgq-55" value="Mode_sel" style="text;html=1;strokeColor=none;fillColor=none;align=left;verticalAlign=middle;whiteSpace=wrap;rounded=0;" vertex="1" parent="1">
          <mxGeometry x="131" y="544" width="59" height="21" as="geometry" />
        </mxCell>
      </root>
    </mxGraphModel>
  </diagram>
</mxfile>
